<?xml version="1.0" encoding="iso-8859-1"?>
<!-- Generator: Adobe Illustrator 18.0.0, SVG Export Plug-In . SVG Version: 6.00 Build 0)  -->
<!DOCTYPE svg PUBLIC "-//W3C//DTD SVG 1.1//EN" "http://www.w3.org/Graphics/SVG/1.1/DTD/svg11.dtd">
<svg version="1.1" id="Capa_1" xmlns="http://www.w3.org/2000/svg" xmlns:xlink="http://www.w3.org/1999/xlink" x="0px" y="0px"
	 viewBox="0 0 444.275 444.275" style="enable-background:new 0 0 444.275 444.275;" xml:space="preserve">
<g>
	<path d="M175.298,179.966C177.899,180.903,172.698,179.024,175.298,179.966L175.298,179.966z"/>
	<path d="M184.533,179.966C187.134,179.024,181.931,180.903,184.533,179.966L184.533,179.966z"/>
	<path d="M172.908,264.905C172.279,263.175,173.532,266.64,172.908,264.905L172.908,264.905z"/>
	<path d="M168.219,222.01c0.759,3.596,2.854,6.662,6.366,7.995c3.16,1.199,7.093,1.221,10.287,0.135
		c3.51-1.193,5.753-4.072,6.624-7.616c2.106-8.569-2.638-16.659-7.571-23.306c-1.262-1.7-2.583-3.368-4.01-4.934
		c-4.041,4.434-7.684,9.579-10.099,15.078C168.038,213.414,167.293,217.629,168.219,222.01z M172.636,219.173
		c1.285-4.402,4.219-8.498,7.279-11.863c3.014,3.313,5.873,7.316,7.207,11.625c0.862,2.785,0.842,6.256-0.76,8.788
		c-1.4,2.214-3.941,3.009-6.447,3.009c-2.428,0-4.908-0.739-6.332-2.834C171.911,225.439,171.827,221.946,172.636,219.173z"/>
	<polygon points="171.386,242.892 171.388,242.895 171.384,242.886 	"/>
	<path d="M188.446,242.892c0.002-0.008,0.004-0.015,0.007-0.023c-0.005,0.013-0.009,0.023-0.013,0.036
		C188.442,242.9,188.444,242.896,188.446,242.892z"/>
	<path d="M91.042,179.968C93.64,180.903,88.442,179.026,91.042,179.968L91.042,179.968z"/>
	<path d="M100.277,179.968C102.878,179.026,97.68,180.903,100.277,179.968L100.277,179.968z"/>
	<path d="M102.134,264.903C101.509,266.638,102.761,263.171,102.134,264.903L102.134,264.903z"/>
	<path d="M83.966,222.006c0.76,3.596,2.854,6.663,6.365,7.997c3.158,1.199,7.09,1.221,10.283,0.135
		c3.509-1.195,5.752-4.074,6.623-7.617c2.105-8.568-2.638-16.657-7.568-23.303c-1.262-1.7-2.584-3.368-4.01-4.934
		c-4.04,4.435-7.682,9.579-10.096,15.077C83.784,213.412,83.04,217.626,83.966,222.006z M88.38,219.175
		c1.284-4.402,4.219-8.497,7.279-11.863c3.014,3.315,5.874,7.317,7.208,11.625c0.862,2.785,0.843,6.254-0.761,8.785
		c-1.401,2.213-3.941,3.008-6.447,3.008c-2.427,0-4.907-0.739-6.332-2.832C87.655,225.439,87.57,221.948,88.38,219.175z"/>
	<path d="M259.647,179.968C262.25,180.903,257.048,179.026,259.647,179.968L259.647,179.968z"/>
	<path d="M268.883,179.968C271.481,179.026,266.28,180.903,268.883,179.968L268.883,179.968z"/>
	<path d="M257.258,264.905C256.629,263.173,257.882,266.64,257.258,264.905L257.258,264.905z"/>
	<path d="M252.568,222.01c0.759,3.596,2.854,6.662,6.366,7.995c3.16,1.199,7.092,1.222,10.287,0.135
		c3.51-1.193,5.752-4.072,6.623-7.616c2.105-8.569-2.639-16.66-7.57-23.308c-1.262-1.699-2.583-3.368-4.01-4.934
		c-4.041,4.436-7.684,9.581-10.099,15.08C252.388,213.414,251.643,217.629,252.568,222.01z M256.985,219.173
		c1.285-4.401,4.219-8.497,7.279-11.863c3.014,3.314,5.873,7.317,7.207,11.625c0.862,2.786,0.842,6.256-0.761,8.788
		c-1.4,2.214-3.94,3.009-6.446,3.009c-2.428,0-4.908-0.739-6.332-2.834C256.261,225.439,256.177,221.947,256.985,219.173z"/>
	<path d="M272.796,242.892c0.004-0.01,0.006-0.02,0.009-0.029c-0.005,0.016-0.011,0.031-0.017,0.047
		C272.791,242.903,272.794,242.898,272.796,242.892z"/>
	<path d="M343.998,180.315C346.6,181.253,341.399,179.374,343.998,180.315L343.998,180.315z"/>
	<path d="M353.235,180.315C355.833,179.374,350.632,181.253,353.235,180.315L353.235,180.315z"/>
	<path d="M341.607,265.255C340.979,263.522,342.232,266.989,341.607,265.255L341.607,265.255z"/>
	<path d="M336.919,222.359c0.76,3.596,2.854,6.662,6.365,7.995c3.16,1.199,7.094,1.222,10.288,0.135
		c3.509-1.193,5.751-4.072,6.622-7.616c2.103-8.569-2.638-16.658-7.569-23.306c-1.261-1.699-2.583-3.368-4.009-4.934
		c-4.041,4.434-7.685,9.58-10.1,15.079C336.737,213.765,335.993,217.979,336.919,222.359z M341.337,219.523
		c1.285-4.401,4.219-8.497,7.279-11.863c3.014,3.314,5.873,7.317,7.207,11.625c0.862,2.786,0.842,6.256-0.761,8.788
		c-1.4,2.214-3.94,3.009-6.446,3.009c-2.428,0-4.908-0.739-6.332-2.834C340.612,225.788,340.528,222.297,341.337,219.523z"/>
	<path d="M340.086,243.241c0.001,0.003,0.003,0.006,0.003,0.008c-0.002-0.007-0.004-0.014-0.007-0.021
		C340.083,243.232,340.085,243.237,340.086,243.241z"/>
	<path d="M357.146,243.241c0.002-0.004,0.002-0.009,0.004-0.014c-0.002,0.008-0.005,0.015-0.008,0.021
		C357.144,243.247,357.145,243.244,357.146,243.241z"/>
	<path d="M0,357.138h444.275c0-11.209-6.524-21.043-13.382-26.627V143.655c2.204-1.422,3.879-3.08,5.028-4.982
		c3.31-5.477,0.886-10.436,0.598-10.982l-8.854,4.648c0,0-0.047-0.07-0.099-0.204c0.1,0.257,0.193,0.795-0.295,1.507
		c-1.034,1.509-6.359,6.432-31.436,6.432c-0.139,0-0.27,0.029-0.405,0.041c-3.681-24.024-39.786-48.072-44.099-50.866l-2.719-1.761
		l-2.719,1.761c-3.539,2.292-28.484,18.896-39.357,38.054c-10.766-19.305-35.996-36.097-39.557-38.403l-2.719-1.761l-2.719,1.761
		c-3.549,2.3-28.633,18.994-39.453,38.225c-10.822-19.23-35.91-35.925-39.459-38.225l-2.719-1.761l-2.719,1.761
		c-3.544,2.296-28.562,18.947-39.406,38.144c-10.848-19.196-35.868-35.848-39.412-38.144l-2.719-1.761l-2.719,1.761
		c-4.332,2.808-40.765,27.071-44.15,51.21c-0.117-0.008-0.229-0.035-0.35-0.035c-25.076,0-30.401-4.923-31.436-6.432
		c-0.488-0.712-0.394-1.25-0.295-1.507c-0.052,0.134-0.099,0.204-0.099,0.204l-8.854-4.648c-0.288,0.547-2.712,5.506,0.598,10.982
		c1.149,1.902,2.824,3.561,5.028,4.982v186.855C6.524,336.095,0,345.929,0,357.138z M76.472,237.196
		c1.08-3.973-1.613-8.576-6.112-7.949c2.198,0.422,4.093,2.225,4.181,4.534c0.102,2.639-1.966,5.001-4.582,5.253
		c-2.41,0.232-4.842-1.194-5.871-3.386c-1.104-2.347-0.506-5.189,1.049-7.186c3.6-4.62,10.586-3.253,13.988,0.852
		c1.893,2.282,2.209,4.75,2.523,7.591c0.316,2.859,1.145,5.705,2.693,8.147c0.537,0.846,1.186,1.648,1.914,2.386
		c-3.246,1.483-4.859,5.523-3.436,8.993c1.131,2.901,4.111,4.07,6.893,4.84c-1.023,0.768-1.623,2.057-1.065,3.62
		c-0.155-0.43-0.306-0.848,0.003,0.011c0.312,0.861,0.16,0.44,0.005,0.01c1.011,2.768,4.284,2.566,5.761,0.859
		c0,0.02,0.002,0.039,0.003,0.059c0.06-0.1,0.114-0.201,0.17-0.303c0.294-0.413,0.496-0.891,0.544-1.432
		c0.133-0.637,0.115-1.294-0.135-1.952c-0.535-1.412-1.91-2.297-3.196-2.947c-1.962-0.991-5.536-1.808-6.282-4.226
		c-0.307-1.054-0.727-2.285-0.38-3.375c0.339-1.467,0.934-2.513,1.801-3.505c1.775,1.583,3.95,2.763,6.253,3.194
		c1.572,0.493,3.387,0.486,4.942-0.002c2.175-0.408,4.236-1.484,5.954-2.938c0.85,1,1.488,2.123,1.613,3.544
		c0.098,1.109-0.147,2.057-0.443,3.103c-0.784,2.496-4.574,3.296-6.579,4.362c-1.269,0.675-2.581,1.632-2.988,3.085
		c-0.175,0.621-0.151,1.229-0.006,1.815c0.067,0.467,0.243,0.887,0.499,1.252c0.059,0.109,0.119,0.218,0.184,0.324
		c0.001-0.02,0.002-0.039,0.004-0.059c1.477,1.712,4.76,1.913,5.762-0.868c0.566-1.565-0.032-2.858-1.058-3.629
		c0.028-0.008,0.058-0.014,0.085-0.022c2.811-0.771,5.709-2.001,6.842-4.914c1.293-3.327-0.131-7.136-3.104-8.729
		c0.799-0.782,1.502-1.646,2.079-2.557c1.549-2.443,2.376-5.287,2.694-8.147c0.317-2.843,0.629-5.306,2.521-7.591
		c3.402-4.105,10.391-5.473,13.988-0.852c1.555,1.996,2.152,4.839,1.049,7.186c-1.029,2.191-3.461,3.618-5.871,3.386
		c-2.615-0.252-4.683-2.614-4.582-5.253c0.09-2.31,1.982-4.112,4.181-4.534c-4.497-0.628-7.194,3.977-6.11,7.949
		c-0.961-0.153-2.005,0.307-2.897,0.602c2.823,0.502,4.756,2.768,7.13,4.162c2.992,1.759,6.535,1.305,9.367-0.602
		c2.266-1.525,3.719-3.764,4.336-6.241v90.52H58.536V235.12c0.618,2.476,2.07,4.713,4.336,6.238c2.832,1.906,6.374,2.36,9.367,0.602
		c2.373-1.395,4.305-3.66,7.128-4.162C78.476,237.503,77.432,237.043,76.472,237.196z M160.727,237.196
		c1.082-3.975-1.615-8.576-6.114-7.949c2.199,0.42,4.096,2.227,4.184,4.536c0.101,2.64-1.97,4.996-4.583,5.249
		c-2.405,0.234-4.848-1.191-5.873-3.382c-1.102-2.349-0.506-5.189,1.051-7.187c3.525-4.521,10.328-3.317,13.789,0.619
		c1.924,2.19,2.418,4.643,2.686,7.458c0.271,2.875,1.053,5.743,2.555,8.229c0.574,0.95,1.282,1.854,2.09,2.672
		c-3.244,1.487-4.861,5.519-3.436,8.992c1.13,2.899,4.109,4.072,6.892,4.841c-1.028,0.77-1.628,2.064-1.059,3.631
		c1.003,2.787,4.287,2.58,5.763,0.861c0.002,0.021,0.002,0.043,0.004,0.064c0.066-0.111,0.129-0.225,0.189-0.339
		c0.27-0.39,0.453-0.836,0.51-1.338c0.145-0.654,0.137-1.332-0.121-2.01c-0.536-1.411-1.91-2.297-3.197-2.946
		c-1.957-0.988-5.536-1.808-6.281-4.224c-0.307-1.054-0.729-2.288-0.38-3.376c0.339-1.465,0.935-2.513,1.8-3.506
		c1.773,1.584,3.944,2.759,6.245,3.19c1.578,0.497,3.401,0.49,4.963-0.002c2.173-0.409,4.224-1.485,5.939-2.938
		c0.85,1.001,1.49,2.124,1.615,3.546c0.098,1.096-0.13,2.061-0.439,3.09c-1.198,2.544-4.301,3.164-6.582,4.377
		c-1.268,0.675-2.581,1.631-2.989,3.084c-0.178,0.633-0.15,1.252,0.002,1.848c0.07,0.439,0.233,0.837,0.471,1.186
		c0.064,0.121,0.131,0.24,0.202,0.357c0.001-0.021,0.003-0.043,0.004-0.064c1.471,1.713,4.738,1.919,5.759-0.841
		c-0.154,0.427-0.301,0.834,0.01-0.021c0.305-0.85,0.159-0.446,0.006-0.022c0.549-1.557-0.047-2.841-1.067-3.607
		c0.027-0.008,0.057-0.014,0.084-0.021c2.811-0.775,5.711-2,6.841-4.918c1.291-3.331-0.131-7.139-3.107-8.729
		c0.879-0.862,1.646-1.822,2.26-2.839c1.502-2.486,2.285-5.352,2.557-8.229c0.266-2.815,0.762-5.268,2.686-7.458
		c3.459-3.938,10.263-5.14,13.788-0.619c1.557,1.996,2.151,4.838,1.05,7.187c-1.026,2.19-3.467,3.616-5.873,3.382
		c-2.613-0.253-4.683-2.608-4.582-5.249c0.088-2.31,1.984-4.116,4.184-4.536c-4.498-0.628-7.197,3.975-6.113,7.949
		c-0.96-0.157-2.004,0.305-2.896,0.6c2.823,0.501,4.756,2.769,7.128,4.164c2.993,1.76,6.535,1.308,9.367-0.6
		c2.266-1.525,3.718-3.764,4.336-6.24v90.518h-74.248v-90.516c0.619,2.477,2.07,4.713,4.336,6.238
		c2.832,1.907,6.373,2.359,9.366,0.6c2.372-1.395,4.304-3.663,7.127-4.164C162.73,237.501,161.686,237.039,160.727,237.196z
		 M245.077,237.196c1.078-3.973-1.612-8.581-6.114-7.949c2.199,0.42,4.096,2.227,4.185,4.536c0.101,2.642-1.97,4.996-4.584,5.249
		c-2.407,0.234-4.846-1.191-5.873-3.382c-1.102-2.349-0.506-5.189,1.051-7.187c3.523-4.521,10.332-3.319,13.789,0.619
		c1.923,2.19,2.42,4.642,2.686,7.457c0.27,2.876,1.053,5.744,2.555,8.23c0.574,0.95,1.281,1.852,2.088,2.67
		c-3.244,1.485-4.859,5.525-3.433,8.993c1.132,2.901,4.11,4.068,6.892,4.839c-1.027,0.77-1.629,2.064-1.06,3.633
		c1.003,2.786,4.286,2.58,5.763,0.861c0.002,0.021,0.002,0.043,0.004,0.064c0.066-0.109,0.127-0.223,0.188-0.336
		c0.271-0.392,0.458-0.842,0.514-1.347c0.144-0.652,0.134-1.327-0.123-2.003c-0.535-1.412-1.909-2.298-3.195-2.948
		c-1.958-0.989-5.543-1.809-6.283-4.227c-0.305-1.054-0.729-2.282-0.38-3.372c0.339-1.465,0.935-2.512,1.8-3.505
		c1.774,1.583,3.945,2.757,6.246,3.189c1.576,0.497,3.395,0.49,4.955,0.001c2.172-0.411,4.232-1.486,5.948-2.938
		c0.849,1,1.488,2.122,1.613,3.543c0.098,1.11-0.148,2.06-0.446,3.106c-0.787,2.494-4.571,3.292-6.576,4.359
		c-1.27,0.675-2.581,1.632-2.989,3.085c-0.177,0.631-0.15,1.248,0.001,1.842c0.07,0.445,0.236,0.847,0.477,1.199
		c0.063,0.117,0.129,0.234,0.198,0.35c0.001-0.021,0.003-0.043,0.004-0.063c1.471,1.711,4.737,1.917,5.758-0.84
		c-0.153,0.426-0.299,0.83,0.011-0.022c0.305-0.85,0.159-0.449,0.006-0.025c0.548-1.556-0.049-2.841-1.068-3.606
		c0.027-0.008,0.057-0.014,0.084-0.022c2.811-0.771,5.713-2.001,6.842-4.916c1.289-3.33-0.129-7.135-3.102-8.727
		c0.797-0.781,1.5-1.643,2.077-2.553c1.55-2.443,2.384-5.289,2.696-8.15c0.311-2.841,0.631-5.31,2.522-7.59
		c3.406-4.108,10.387-5.477,13.988-0.854c1.557,1.998,2.152,4.838,1.051,7.187c-1.027,2.19-3.465,3.616-5.873,3.382
		c-2.613-0.253-4.685-2.607-4.583-5.249c0.089-2.31,1.984-4.116,4.184-4.536c-4.501-0.633-7.194,3.977-6.112,7.949
		c-0.96-0.157-2.004,0.305-2.896,0.6c2.823,0.501,4.755,2.77,7.128,4.164c2.993,1.76,6.535,1.306,9.367-0.602
		c2.267-1.525,3.719-3.764,4.336-6.241v90.52h-74.248v-90.516c0.618,2.475,2.07,4.711,4.336,6.236
		c2.832,1.907,6.373,2.361,9.365,0.602c2.373-1.395,4.305-3.663,7.127-4.164C247.079,237.501,246.036,237.038,245.077,237.196z
		 M329.427,237.546c1.084-3.975-1.611-8.577-6.112-7.949c2.199,0.422,4.095,2.227,4.183,4.537c0.103,2.641-1.97,4.995-4.583,5.248
		c-2.408,0.234-4.845-1.192-5.873-3.383c-1.102-2.348-0.504-5.188,1.051-7.185c3.523-4.521,10.33-3.319,13.788,0.619
		c1.923,2.19,2.421,4.642,2.685,7.457c0.272,2.877,1.055,5.743,2.557,8.229c0.573,0.95,1.28,1.853,2.088,2.671
		c-3.244,1.486-4.858,5.525-3.433,8.993c1.13,2.901,4.11,4.071,6.892,4.839c-1.027,0.771-1.63,2.065-1.062,3.633
		c1.004,2.786,4.29,2.579,5.765,0.86c0.002,0.022,0.002,0.045,0.004,0.067c0.07-0.116,0.135-0.235,0.199-0.355
		c0.257-0.377,0.434-0.809,0.492-1.291c0.152-0.664,0.148-1.352-0.112-2.04c-0.536-1.412-1.909-2.298-3.196-2.948
		c-1.956-0.988-5.54-1.809-6.283-4.225c-0.305-1.054-0.729-2.285-0.38-3.375c0.337-1.465,0.934-2.513,1.799-3.505
		c1.773,1.584,3.943,2.757,6.244,3.189c1.578,0.498,3.401,0.491,4.963-0.001c2.173-0.409,4.224-1.485,5.938-2.938
		c0.851,1,1.491,2.124,1.617,3.547c0.099,1.111-0.149,2.058-0.444,3.105c-0.784,2.495-4.573,3.295-6.578,4.361
		c-1.27,0.675-2.581,1.632-2.989,3.086c-0.176,0.625-0.15,1.236-0.003,1.825c0.069,0.458,0.24,0.868,0.489,1.229
		c0.061,0.113,0.123,0.227,0.19,0.337c0.001-0.02,0.003-0.041,0.004-0.061c1.47,1.706,4.73,1.909,5.755-0.838
		c-0.152,0.424-0.295,0.82,0.014-0.028c0.303-0.845,0.16-0.453,0.008-0.031c0.543-1.553-0.053-2.834-1.07-3.599
		c0.027-0.007,0.057-0.015,0.083-0.022c2.812-0.775,5.712-1.999,6.843-4.917c1.29-3.332-0.132-7.14-3.108-8.729
		c0.878-0.862,1.645-1.822,2.26-2.838c1.503-2.485,2.285-5.354,2.556-8.229c0.266-2.814,0.763-5.269,2.686-7.457
		c3.461-3.936,10.264-5.142,13.789-0.619c1.555,1.996,2.153,4.838,1.051,7.185c-1.027,2.19-3.465,3.617-5.873,3.383
		c-2.615-0.253-4.685-2.607-4.584-5.248c0.089-2.311,1.986-4.115,4.185-4.537c-4.501-0.629-7.193,3.975-6.114,7.949
		c-0.959-0.158-2.004,0.305-2.895,0.6c2.823,0.501,4.756,2.77,7.129,4.164c2.992,1.76,6.533,1.308,9.365-0.601
		c2.266-1.525,3.717-3.763,4.336-6.239v90.168h-74.248v-90.172c0.617,2.477,2.069,4.717,4.336,6.243
		c2.832,1.908,6.374,2.36,9.367,0.601c2.373-1.395,4.305-3.663,7.129-4.164C331.431,237.851,330.387,237.389,329.427,237.546z
		 M420.894,147.665v178.004c-0.209-0.016-0.418-0.031-0.618-0.031h-24.536V150.064c0.033,0,0.064,0.01,0.098,0.01
		C406.133,150.073,414.444,149.27,420.894,147.665z M348.616,99.467c12.445,8.614,37.123,28.916,37.123,44.526v85.841
		c-0.069-0.284-0.148-0.567-0.239-0.85c-1.602-4.968-6.071-8.414-11.215-8.875c4.753-5.639,5.255-14.624,0.271-20.537
		c-3.883-4.604-9.888-6.077-15.436-7.611c-1.824-0.505-3.922-1.021-5.531-2.147c0.977,0.279,2.037,0.281,3.048-0.084
		c2.563-0.929,3.935-3.844,3.005-6.408c-0.929-2.564-3.84-3.936-6.406-3.006c-1.069,0.385-1.913,1.126-2.487,2.032
		c-0.001-0.02-0.002-0.04-0.003-0.059c-1.462,2.438-2.369,5.178-1.431,7.993c1.069,3.207,4.02,5.254,6.886,6.75
		c3.212,1.677,6.692,2.821,9.811,4.681c1.352,0.806,2.664,1.777,3.62,3.042c0.381,0.503,0.716,1.048,0.992,1.615
		c0.036,0.074,0.31,0.718,0.165,0.285c1.129,3.305,1.496,6.486,0.444,9.895c-0.458,1.487-1.154,2.809-2.003,4.021
		c-3.429,0.929-6.514,3.059-8.578,5.995c-1.583,2.253-2.511,4.927-2.68,7.675c-0.096,1.563,0.094,3.122-0.009,4.688
		c-0.096,1.459-0.348,2.912-0.813,4.301c0.18-0.534,0.285-0.844-0.004,0.014c-0.83,2.461-0.313,0.927-0.004,0.008
		c-0.432,1.277-1.082,2.473-1.875,3.565c0.453-2.489-0.24-5.346-1.242-7.46c-1.359-2.869-3.273-5.558-5.408-7.906
		c-1.911,2.103-3.616,4.475-4.945,6.985c-1.26,2.378-2.248,5.568-1.72,8.362c-0.787-1.088-1.433-2.276-1.862-3.547
		c0.311,0.919,0.827,2.453-0.003-0.008c-0.288-0.857-0.185-0.548-0.004-0.014c-0.466-1.389-0.718-2.842-0.813-4.301
		c-0.103-1.565,0.086-3.126-0.011-4.688c-0.168-2.748-1.094-5.422-2.678-7.675c-2.065-2.938-5.15-5.067-8.58-5.996
		c-0.848-1.212-1.543-2.533-2.002-4.02c-1.051-3.409-0.683-6.59,0.445-9.895c-0.145,0.436,0.154-0.269,0.199-0.356
		c0.322-0.631,0.699-1.233,1.146-1.784c1.004-1.237,2.354-2.183,3.724-2.974c3.046-1.757,6.405-2.884,9.518-4.51
		c2.954-1.542,5.995-3.68,6.977-7.04c0.797-2.733-0.116-5.357-1.521-7.702c-0.001,0.02-0.002,0.04-0.002,0.061
		c-0.574-0.907-1.418-1.648-2.487-2.033c-2.565-0.93-5.479,0.44-6.407,3.006c-0.93,2.564,0.441,5.479,3.004,6.408
		c0.955,0.345,1.959,0.37,2.891,0.137c-0.684,0.466-1.463,0.838-2.313,1.148c-2.662,0.973-5.46,1.527-8.159,2.384
		c-5.336,1.692-10.611,4.692-12.732,10.171c-1.551,4.003-1.563,8.471,0.091,12.452c0.634,1.494,1.491,2.878,2.526,4.092
		c-5.123,0.478-9.568,3.919-11.165,8.871c-0.092,0.284-0.171,0.569-0.241,0.856v-85.848
		C311.491,128.409,336.171,108.09,348.616,99.467z M264.263,99.118c12.446,8.624,37.127,28.941,37.127,44.525v85.847
		c-0.07-0.286-0.149-0.572-0.24-0.855c-1.602-4.968-6.07-8.413-11.213-8.875c4.752-5.639,5.251-14.627,0.268-20.537
		c-3.882-4.602-9.888-6.077-15.436-7.611c-1.824-0.505-3.925-1.022-5.535-2.149c0.979,0.281,2.041,0.283,3.053-0.082
		c2.563-0.929,3.934-3.844,3.004-6.408c-0.928-2.564-3.842-3.934-6.407-3.004c-1.069,0.385-1.913,1.125-2.487,2.033
		c-0.001-0.021-0.002-0.041-0.003-0.061c-1.462,2.439-2.369,5.178-1.429,7.994c1.068,3.204,4.021,5.253,6.885,6.748
		c3.213,1.676,6.692,2.822,9.811,4.681c1.352,0.806,2.664,1.777,3.62,3.042c0.38,0.502,0.718,1.047,0.993,1.614
		c0.035,0.074,0.309,0.718,0.164,0.286c1.139,3.297,1.494,6.492,0.445,9.894c-0.458,1.486-1.154,2.808-2.002,4.02
		c-3.43,0.929-6.514,3.057-8.579,5.995c-1.583,2.253-2.511,4.928-2.679,7.676c-0.097,1.562,0.092,3.122-0.011,4.688
		c-0.095,1.454-0.345,2.901-0.807,4.285c0.177-0.524,0.276-0.819-0.009,0.029c-0.828,2.453-0.317,0.938-0.008,0.018
		c-0.432,1.274-1.08,2.466-1.872,3.556c0.452-2.489-0.241-5.346-1.243-7.46c-1.359-2.87-3.273-5.559-5.408-7.908
		c-1.911,2.104-3.615,4.476-4.945,6.986c-1.259,2.379-2.248,5.57-1.718,8.365c-0.789-1.091-1.437-2.282-1.866-3.557
		c-0.469-1.393-0.721-2.851-0.816-4.314c-0.104-1.565,0.085-3.126-0.01-4.688c-0.169-2.748-1.096-5.424-2.68-7.676
		c-2.065-2.938-5.15-5.066-8.58-5.995c-0.848-1.212-1.543-2.533-2.002-4.02c-1.051-3.409-0.682-6.59,0.445-9.895
		c-0.145,0.436,0.154-0.269,0.199-0.355c0.322-0.631,0.699-1.234,1.146-1.784c1.004-1.238,2.354-2.183,3.725-2.973
		c3.045-1.758,6.404-2.885,9.518-4.51c2.955-1.542,5.996-3.68,6.977-7.04c0.799-2.733-0.115-5.358-1.521-7.702
		c-0.001,0.02-0.002,0.039-0.003,0.06c-0.574-0.907-1.418-1.648-2.487-2.032c-2.565-0.93-5.48,0.439-6.407,3.004
		c-0.93,2.564,0.443,5.48,3.006,6.408c0.955,0.346,1.959,0.371,2.891,0.137c-0.684,0.467-1.464,0.838-2.314,1.149
		c-2.662,0.972-5.46,1.528-8.159,2.384c-5.337,1.692-10.612,4.691-12.733,10.17c-1.549,4.003-1.563,8.471,0.092,12.451
		c0.633,1.494,1.49,2.878,2.526,4.093c-5.123,0.477-9.569,3.919-11.165,8.871c-0.092,0.282-0.17,0.566-0.24,0.852v-85.843
		C227.142,128.061,251.817,107.743,264.263,99.118z M179.913,99.118c12.446,8.624,37.127,28.941,37.127,44.525v85.844
		c-0.07-0.286-0.148-0.57-0.24-0.853c-1.601-4.968-6.07-8.413-11.213-8.875c4.752-5.639,5.25-14.627,0.268-20.537
		c-3.882-4.604-9.887-6.077-15.436-7.611c-1.826-0.505-3.926-1.022-5.536-2.15c0.978,0.281,2.041,0.283,3.054-0.083
		c2.564-0.928,3.934-3.844,3.006-6.408c-0.93-2.564-3.844-3.933-6.409-3.004c-1.069,0.385-1.913,1.127-2.487,2.035
		c-0.001-0.021-0.002-0.041-0.003-0.061c-1.462,2.439-2.369,5.178-1.429,7.994c1.07,3.205,4.02,5.251,6.885,6.747
		c3.213,1.677,6.692,2.822,9.811,4.681c1.352,0.806,2.664,1.777,3.62,3.042c0.38,0.503,0.716,1.048,0.992,1.615
		c0.036,0.074,0.309,0.718,0.165,0.286c1.136,3.299,1.495,6.49,0.445,9.894c-0.458,1.486-1.154,2.808-2.002,4.02
		c-3.43,0.929-6.514,3.057-8.579,5.996c-1.583,2.253-2.511,4.927-2.679,7.675c-0.097,1.563,0.092,3.123-0.01,4.688
		c-0.096,1.456-0.346,2.906-0.81,4.292c0.179-0.528,0.28-0.829-0.007,0.023c-0.829,2.457-0.316,0.933-0.006,0.014
		c-0.432,1.275-1.082,2.468-1.874,3.559c0.452-2.489-0.241-5.346-1.243-7.46c-1.359-2.869-3.273-5.559-5.408-7.908
		c-1.91,2.104-3.615,4.477-4.945,6.987c-1.258,2.378-2.247,5.569-1.718,8.362c-0.788-1.089-1.435-2.279-1.864-3.551
		c0.309,0.918,0.83,2.462-0.002-0.004c-0.29-0.859-0.184-0.545-0.002-0.006c-0.468-1.391-0.719-2.847-0.814-4.309
		c-0.104-1.564,0.086-3.125-0.01-4.688c-0.169-2.748-1.097-5.422-2.68-7.675c-2.065-2.938-5.15-5.067-8.58-5.996
		c-0.848-1.212-1.543-2.534-2.002-4.021c-1.05-3.407-0.684-6.591,0.445-9.895c-0.145,0.438,0.154-0.268,0.199-0.355
		c0.322-0.631,0.699-1.233,1.146-1.784c1.004-1.238,2.354-2.183,3.725-2.974c3.045-1.756,6.404-2.884,9.518-4.509
		c2.953-1.542,5.996-3.679,6.977-7.039c0.799-2.733-0.115-5.357-1.52-7.702c-0.001,0.021-0.002,0.041-0.002,0.061
		c-0.574-0.908-1.418-1.649-2.488-2.035c-2.565-0.929-5.48,0.439-6.408,3.004c-0.93,2.565,0.441,5.482,3.006,6.408
		c0.955,0.346,1.96,0.371,2.892,0.137c-0.685,0.467-1.464,0.84-2.315,1.15c-2.662,0.973-5.46,1.527-8.159,2.384
		c-5.338,1.692-10.611,4.691-12.733,10.171c-1.549,4.003-1.562,8.471,0.092,12.451c0.634,1.494,1.49,2.878,2.527,4.093
		c-5.123,0.477-9.571,3.919-11.168,8.871c-0.09,0.281-0.169,0.564-0.238,0.849v-85.84
		C142.792,128.061,167.468,107.743,179.913,99.118z M95.657,99.118c12.446,8.624,37.127,28.941,37.127,44.525v85.846
		c-0.07-0.286-0.148-0.57-0.24-0.854c-1.602-4.968-6.068-8.418-11.211-8.877c4.748-5.64,5.248-14.625,0.266-20.535
		c-3.883-4.605-9.889-6.076-15.437-7.61c-1.827-0.506-3.929-1.023-5.539-2.152c0.979,0.282,2.042,0.285,3.057-0.081
		c2.563-0.927,3.931-3.842,3.007-6.406c-0.927-2.566-3.843-3.935-6.409-3.006c-1.069,0.385-1.913,1.127-2.487,2.035
		c-0.001-0.021-0.002-0.042-0.003-0.063c-1.462,2.439-2.37,5.178-1.431,7.994c1.07,3.206,4.021,5.254,6.887,6.749
		c3.212,1.677,6.691,2.821,9.811,4.681c1.352,0.805,2.664,1.777,3.619,3.041c0.381,0.504,0.717,1.048,0.993,1.615
		c0.036,0.073,0.309,0.717,0.165,0.287c1.129,3.305,1.495,6.486,0.444,9.895c-0.458,1.485-1.153,2.806-2,4.017
		c-3.431,0.929-6.517,3.057-8.582,5.996c-1.583,2.252-2.507,4.925-2.675,7.672c-0.096,1.563,0.092,3.124-0.012,4.688
		c-0.097,1.465-0.35,2.922-0.819,4.314c-0.431,1.278-1.081,2.474-1.873,3.567c0.45-2.487-0.243-5.34-1.244-7.453
		c-1.36-2.87-3.276-5.56-5.411-7.909c-1.912,2.104-3.617,4.477-4.947,6.988c-1.259,2.376-2.248,5.563-1.721,8.354
		c-0.785-1.089-1.43-2.277-1.858-3.547c-0.47-1.392-0.724-2.85-0.819-4.314c-0.104-1.564,0.083-3.126-0.013-4.688
		c-0.167-2.747-1.093-5.421-2.675-7.672c-2.066-2.939-5.152-5.067-8.583-5.996c-0.847-1.211-1.542-2.532-1.999-4.018
		c-1.052-3.41-0.683-6.588,0.443-9.895c-0.145,0.435,0.155-0.27,0.199-0.356c0.322-0.631,0.699-1.234,1.146-1.784
		c1.004-1.238,2.354-2.183,3.725-2.974c3.047-1.756,6.405-2.885,9.52-4.51c2.953-1.541,5.996-3.68,6.977-7.04
		c0.798-2.733-0.115-5.358-1.521-7.702c-0.001,0.021-0.002,0.041-0.003,0.063c-0.573-0.908-1.418-1.65-2.487-2.035
		c-2.565-0.929-5.483,0.438-6.408,3.006c-0.927,2.565,0.443,5.479,3.008,6.406c0.957,0.346,1.961,0.371,2.893,0.136
		c-0.685,0.468-1.465,0.84-2.317,1.151c-2.663,0.972-5.46,1.527-8.159,2.383c-5.338,1.693-10.612,4.692-12.734,10.172
		c-1.55,4.004-1.56,8.471,0.093,12.452c0.634,1.493,1.489,2.875,2.524,4.089c-5.125,0.476-9.568,3.92-11.164,8.873
		c-0.092,0.282-0.17,0.566-0.24,0.852v-85.844C58.536,128.061,83.212,107.743,95.657,99.118z M23.382,147.665
		c6.449,1.605,14.761,2.408,25.057,2.408c0.033,0,0.064-0.01,0.098-0.01v175.574H24c-0.2,0-0.409,0.016-0.618,0.031V147.665z"/>
</g>
<g>
</g>
<g>
</g>
<g>
</g>
<g>
</g>
<g>
</g>
<g>
</g>
<g>
</g>
<g>
</g>
<g>
</g>
<g>
</g>
<g>
</g>
<g>
</g>
<g>
</g>
<g>
</g>
<g>
</g>
</svg>
